PathFileType	4	(x/y/z)	TRC_MarkerData\Passive\Passive_Pref0011.trc
DataRate	CameraRate	NumFrames	NumMarkers	Units	OrigDataRate	OrigDataStartFrame	OrigNumFrames
240	240	6	50	mm	240	155	309
Frame#	Time	R_AC			L_AC			HEAD			STERN			C7			L_IC			R_IC			L_ASIS			R_ASIS			L_GT			R_GT			L_PSIS			R_PSIS			SACRAL			L_LAT_KNEE			L_MED_KNEE			R_LAT_KNEE			R_MED_KNEE			L_LAT_ANK			L_MED_ANK			R_LAT_ANK			R_MED_ANK			L_THIGH_PROX_POST			L_THIGH_PROX_ANT			L_THIGH_DIST_ANT			L_THIGH_DIST_POST			R_THIGH_PROX_POST			R_THIGH_PROX_ANT			R_THIGH_DIST_ANT			R_THIGH_DIST_POST			L_SHANK_PROX_POST			L_SHANK_PROX_ANT			L_SHANK_DIST_ANT			L_SHANK_DIST_POST			R_SHANK_PROX_POST			R_SHANK_PROX_ANT			R_SHANK_DIST_ANT			R_SHANK_DIST_POST			L_HEEL_LAT			L_HEEL_SUP			L_HEEL_MED			R_HEEL_LAT			R_HEEL_SUP			R_HEEL_MED			L_1ST_MET			L_5TH_MET			L_TOE			R_1ST_MET			R_5TH_MET			R_TOE			
		X1	Y1	Z1	X2	Y2	Z2	X3	Y3	Z3	X4	Y4	Z4	X5	Y5	Z5	X6	Y6	Z6	X7	Y7	Z7	X8	Y8	Z8	X9	Y9	Z9	X10	Y10	Z10	X11	Y11	Z11	X12	Y12	Z12	X13	Y13	Z13	X14	Y14	Z14	X15	Y15	Z15	X16	Y16	Z16	X17	Y17	Z17	X18	Y18	Z18	X19	Y19	Z19	X20	Y20	Z20	X21	Y21	Z21	X22	Y22	Z22	X23	Y23	Z23	X24	Y24	Z24	X25	Y25	Z25	X26	Y26	Z26	X27	Y27	Z27	X28	Y28	Z28	X29	Y29	Z29	X30	Y30	Z30	X31	Y31	Z31	X32	Y32	Z32	X33	Y33	Z33	X34	Y34	Z34	X35	Y35	Z35	X36	Y36	Z36	X37	Y37	Z37	X38	Y38	Z38	X39	Y39	Z39	X40	Y40	Z40	X41	Y41	Z41	X42	Y42	Z42	X43	Y43	Z43	X44	Y44	Z44	X45	Y45	Z45	X46	Y46	Z46	X47	Y47	Z47	X48	Y48	Z48	X49	Y49	Z49	X50	Y50	Z50	

155	0.64375	-62.019	1496.7	465.01	-99.786	1517.1	62.758	-44.548	1830.4	276.37	-9.0368	1469.9	260.72	-141.94	1551.9	266.58	-122.18	1072.6	102.12	-95.999	1086.2	438.9	-71.494	1012.4	127.99	-35.751	1023.2	393.52	-184.68	944.57	93.464	-107.7	945.95	453.09	-255.02	1040.6	232.78	-244.26	1028.5	337.76	-262.56	1003.1	284.55	-268.7	554.66	137.65	-264.1	572.71	275.93	45.94	550.08	406.62	40.946	547.17	274	-506.52	144.4	174.51	-514.34	146.75	262.7	205.98	95.484	343.55	222.51	158.35	257.41	-241.57	779.83	111.47	-183.02	753.72	106.49	-200.3	685.99	123.87	-261.76	707.64	122.92	-59.218	759.9	448.9	4.7408	787.63	441.84	28.579	715.69	432.31	-37.405	689.82	435.18	-332.64	474.85	159.84	-274.16	451.01	168.14	-294.49	405.26	178.29	-346.89	428.21	159.99	78.166	357.5	406.65	136.24	391.29	396.65	164.55	324.11	380.08	105.86	289.51	388.77	-577.04	80.282	179.07	-589.93	110.4	209.67	-587.65	84.976	245.04	172.07	22.417	301.09	155.45	54.83	272.62	187.86	48.239	242.38	-370.45	45.875	294.9	-382.07	45.848	184.88	-318.9	50.497	267.79	357.91	165.62	277.57	347.89	121.86	378.13	390.58	188.57	324.81
156	0.64793	-56.099	1495.5	465.76	-93.932	1516.2	63.526	-39.149	1829.4	276.94	-3.1408	1468.9	261.43	-136.13	1550.9	267.37	-115.9	1071.7	102.14	-89.882	1084.8	438.94	-65.335	1011.3	127.77	-29.376	1022.4	393.35	-178.72	943.54	93.342	-101.04	945.01	452.91	-248.57	1039.2	232.68	-238	1027.2	337.7	-256.28	1001.8	284.46	-264.09	553.96	137.75	-259.31	571.97	276.03	53.85	549.65	405.48	48.153	546.79	273.1	-505.46	145.57	174.6	-513.23	148	262.85	209.1	94.117	342.3	226.03	155.95	255.69	-236.13	779.07	111.4	-177.58	752.83	106.36	-195.13	685.13	123.89	-256.54	706.97	122.93	-51.849	759.2	448.31	11.917	787.2	441.08	36.112	715.37	431.29	-29.757	689.23	434.33	-328.69	474.68	159.94	-270.42	450.36	168.22	-291.1	404.76	178.37	-343.33	428.16	160.09	84.715	356.76	405.56	143	390.01	395.05	170.55	322.54	378.33	111.62	288.52	387.6	-576.48	81.994	179.2	-589.12	112.21	209.83	-587.04	86.755	245.17	173.58	21.693	300.39	157.72	54.165	271.67	189.8	46.634	241.46	-370.2	45.906	294.94	-381.78	46.006	184.92	-318.57	50.222	267.82	361.47	161.62	275.27	351.15	118.87	376.25	394.71	184.38	322.35
157	0.65211	-50.202	1494.4	466.52	-88.06	1515.3	64.314	-33.743	1828.5	277.52	2.7636	1468	262.17	-130.32	1549.8	268.19	-109.56	1070.9	102.14	-83.733	1083.5	438.98	-59.112	1010.2	127.56	-22.969	1021.6	393.16	-172.71	942.52	93.211	-94.339	944.1	452.74	-242.1	1037.8	232.56	-231.72	1025.8	337.63	-249.96	1000.5	284.34	-259.37	553.24	137.85	-254.41	571.21	276.13	61.711	549.24	404.37	55.276	546.4	272.21	-504.32	146.81	174.7	-512.05	149.33	263.01	212.07	92.827	341.13	229.45	153.55	254.02	-230.63	778.3	111.34	-172.09	751.93	106.24	-189.89	684.27	123.9	-251.25	706.29	122.95	-44.468	758.51	447.73	19.114	786.76	440.35	43.632	715.05	430.3	-22.132	688.65	433.49	-324.64	474.51	160.05	-266.59	449.7	168.31	-287.64	404.27	178.45	-339.67	428.12	160.2	91.216	356.06	404.51	149.71	388.76	393.47	176.48	321	376.62	117.33	287.58	386.47	-575.87	83.813	179.32	-588.24	114.13	209.99	-586.37	88.647	245.3	174.86	21.124	299.77	159.8	53.652	270.79	191.52	45.115	240.61	-369.95	45.949	294.99	-381.48	46.181	184.96	-318.22	49.938	267.86	364.93	157.48	273.03	354.26	115.8	374.43	398.77	180.01	319.94
158	0.65629	-44.328	1493.3	467.32	-82.173	1514.4	65.118	-28.327	1827.6	278.11	8.6759	1467.1	262.92	-124.51	1548.8	269.03	-103.16	1070	102.13	-77.547	1082.2	439	-52.832	1009.2	127.35	-16.537	1020.8	392.96	-166.66	941.49	93.072	-87.589	943.22	452.55	-235.61	1036.4	232.42	-225.42	1024.4	337.55	-243.62	999.18	284.2	-254.53	552.51	137.95	-249.4	570.43	276.23	69.51	548.85	403.3	62.303	546.01	271.33	-503.1	148.13	174.79	-510.8	150.73	263.17	214.9	91.624	340.02	232.78	151.18	252.4	-225.06	777.53	111.28	-166.54	751.01	106.12	-184.58	683.41	123.91	-245.88	705.6	122.98	-37.087	757.86	447.18	26.324	786.33	439.64	51.129	714.72	429.34	-14.542	688.09	432.68	-320.48	474.34	160.15	-262.66	449.03	168.41	-284.08	403.78	178.54	-335.93	428.08	160.31	97.669	355.4	403.48	156.36	387.55	391.93	182.36	319.51	374.93	122.99	286.69	385.37	-575.21	85.751	179.44	-587.29	116.17	210.15	-585.63	90.664	245.43	175.94	20.717	299.24	161.74	53.296	269.97	193.06	43.7	239.84	-369.68	46.007	295.04	-381.15	46.375	185.01	-317.87	49.644	267.9	368.3	153.25	270.86	357.23	112.65	372.67	402.78	175.49	317.6
159	0.66047	-38.477	1492.3	468.13	-76.276	1513.5	65.936	-22.902	1826.7	278.7	14.595	1466.3	263.7	-118.7	1547.8	269.88	-96.712	1069.2	102.11	-71.324	1080.8	439.02	-46.499	1008.1	127.14	-10.087	1020.1	392.75	-160.55	940.46	92.925	-80.805	942.39	452.37	-229.1	1035.1	232.26	-219.11	1023.1	337.44	-237.24	997.87	284.04	-249.57	551.76	138.05	-244.26	569.63	276.33	77.24	548.5	402.26	69.226	545.64	270.48	-501.79	149.52	174.88	-509.46	152.23	263.34	217.62	90.514	339	236.03	148.87	250.85	-219.43	776.75	111.22	-160.93	750.09	106	-179.18	682.55	123.9	-240.43	704.9	123.02	-29.717	757.25	446.65	33.536	785.91	438.97	58.591	714.39	428.42	-6.9996	687.57	431.9	-316.22	474.17	160.27	-258.63	448.35	168.51	-280.43	403.28	178.63	-332.07	428.05	160.42	104.07	354.79	402.5	162.95	386.4	390.42	188.18	318.08	373.3	128.6	285.85	384.32	-574.47	87.815	179.57	-586.23	118.35	210.31	-584.83	92.817	245.56	176.87	20.471	298.79	163.55	53.097	269.24	194.44	42.406	239.14	-369.39	46.084	295.09	-380.8	46.59	185.05	-317.5	49.34	267.94	371.59	148.93	268.78	360.07	109.45	370.97	406.73	170.85	315.34
160	0.66465	-32.649	1491.3	468.97	-70.37	1512.7	66.765	-17.465	1825.9	279.29	20.521	1465.5	264.51	-112.89	1546.9	270.74	-90.215	1068.4	102.06	-65.066	1079.6	439.02	-40.12	1007.1	126.93	-3.6261	1019.4	392.53	-154.39	939.44	92.771	-74	941.62	452.19	-222.58	1033.8	232.08	-212.8	1021.7	337.32	-230.84	996.58	283.86	-244.48	550.99	138.16	-238.99	568.82	276.44	84.893	548.19	401.28	76.044	545.29	269.66	-500.38	151	174.97	-508.03	153.82	263.52	220.22	89.501	338.06	239.21	146.62	249.39	-213.72	775.97	111.18	-155.25	749.17	105.9	-173.69	681.69	123.89	-234.89	704.2	123.07	-22.368	756.69	446.16	40.743	785.52	438.34	66.009	714.08	427.56	0.48668	687.08	431.16	-311.82	474	160.38	-254.48	447.66	168.61	-276.66	402.79	178.72	-328.09	428.03	160.53	110.42	354.25	401.57	169.48	385.3	388.98	193.95	316.72	371.73	134.16	285.09	383.33	-573.67	90.019	179.69	-585.08	120.67	210.46	-583.95	95.118	245.68	177.66	20.383	298.42	165.24	53.051	268.58	195.68	41.245	238.52	-369.09	46.184	295.15	-380.43	46.829	185.08	-317.12	49.025	267.99	374.8	144.58	266.79	362.8	106.2	369.34	410.62	166.13	313.17
